<svg width="48" height="48" viewBox="0 0 48 48" fill="none" xmlns="http://www.w3.org/2000/svg">
<rect width="48" height="48" fill="#323238"/>
<path fill-rule="evenodd" clip-rule="evenodd" d="M8 24C8 15.1634 15.1634 8 24 8C32.8366 8 40 15.1634 40 24C40 32.8366 32.8366 40 24 40C15.1634 40 8 32.8366 8 24ZM16.2 21.3V32H19.6V21.3H16.2ZM16 17.9C16 19 16.8 19.8 17.9 19.8C19 19.8 19.8 19 19.8 17.9C19.8 16.8 19 16 17.9 16C16.9 16 16 16.8 16 17.9ZM28.6 32H31.8V25.4C31.8 22.1 29.8 21 27.9 21C26.2 21 25 22.1 24.7 22.8V21.3H21.5V32H24.9V26.3C24.9 24.8 25.9 24 26.9 24C27.9 24 28.6 24.5 28.6 26.2V32Z" fill="white"/>
</svg>
