<?xml version="1.0" standalone="no"?>
<!DOCTYPE svg PUBLIC "-//W3C//DTD SVG 20010904//EN"
 "http://www.w3.org/TR/2001/REC-SVG-20010904/DTD/svg10.dtd">
<svg version="1.0" xmlns="http://www.w3.org/2000/svg"
 width="1200.000000pt" height="1600.000000pt" viewBox="0 0 1200.000000 1600.000000"
 preserveAspectRatio="xMidYMid meet">
<metadata>
Created by potrace 1.16, written by Peter Selinger 2001-2019
</metadata>
<g transform="translate(0.000000,1600.000000) scale(0.100000,-0.100000)"
fill="#000000" stroke="none">
<path d="M4700 15986 c0 -17 -16 -20 -97 -18 -24 1 -43 -3 -43 -8 0 -5 -8 -9
-17 -8 -10 1 -35 0 -55 0 -33 -2 -37 -5 -43 -34 -4 -18 -13 -36 -19 -40 -8 -6
-7 -8 2 -8 6 0 12 -4 12 -10 0 -5 -7 -10 -15 -10 -9 0 -29 -7 -45 -15 -23 -12
-34 -13 -55 -3 -21 9 -31 9 -46 0 -10 -7 -26 -12 -35 -12 -10 0 -14 -6 -11
-14 8 -20 -18 -39 -41 -32 -11 4 -32 2 -46 -4 -15 -5 -59 -11 -97 -11 -61 -1
-69 -3 -69 -20 0 -10 -5 -19 -11 -19 -6 0 -27 -7 -47 -16 -21 -9 -54 -24 -74
-33 -21 -9 -38 -20 -38 -25 0 -14 -80 -82 -138 -118 -30 -18 -83 -54 -118 -80
-36 -27 -69 -48 -74 -48 -6 0 -10 -6 -10 -14 0 -8 -21 -31 -47 -52 -85 -70
-139 -125 -125 -131 27 -11 5 -60 -71 -157 -22 -29 -37 -57 -34 -67 4 -15 -24
-75 -42 -89 -3 -3 -21 -36 -40 -75 -18 -38 -39 -77 -45 -85 -11 -13 -37 -85
-42 -115 -1 -5 -3 -14 -4 -20 -1 -5 -2 -18 -1 -27 1 -9 -5 -41 -13 -69 -9 -29
-16 -67 -16 -85 0 -18 -4 -35 -10 -39 -5 -3 -7 -12 -4 -20 3 -8 -2 -39 -11
-70 -11 -39 -13 -61 -6 -69 12 -15 3 -58 -16 -69 -7 -4 -13 -15 -13 -23 0 -8
5 -12 10 -9 18 11 11 -54 -8 -73 -10 -10 -18 -27 -19 -37 0 -11 -8 -53 -17
-93 -9 -40 -16 -88 -16 -107 0 -19 -3 -36 -7 -38 -5 -3 -8 -23 -7 -46 0 -22
-2 -39 -4 -36 -13 13 -29 -33 -24 -72 4 -35 0 -51 -18 -74 -12 -17 -19 -33
-16 -36 3 -4 6 -1 6 5 0 7 5 12 10 12 13 0 13 -53 0 -66 -6 -6 -6 -21 0 -43 7
-27 5 -41 -10 -72 -21 -41 -25 -53 -12 -46 9 6 7 -137 -3 -152 -3 -6 1 -14 9
-17 9 -3 14 -9 12 -13 -3 -4 -8 -72 -11 -152 -7 -158 -10 -194 -19 -244 -4
-19 -2 -36 4 -40 5 -3 7 -22 4 -41 -4 -26 -1 -41 12 -55 19 -21 20 -33 27
-216 2 -67 8 -128 14 -135 6 -7 11 -53 11 -102 1 -48 6 -93 11 -100 5 -6 11
-36 14 -66 3 -30 6 -57 7 -60 1 -3 1 -9 0 -15 -1 -5 -1 -50 -1 -99 1 -66 -3
-96 -15 -114 -11 -16 -14 -35 -10 -56 8 -39 8 -41 4 -154 -4 -81 -2 -92 11
-87 13 5 14 4 4 -6 -18 -18 -16 -58 2 -65 8 -4 15 -17 15 -30 0 -20 -5 -24
-29 -24 -24 0 -31 -6 -40 -31 -15 -45 -14 -202 4 -344 21 -166 32 -215 66
-285 16 -33 29 -63 29 -65 0 -3 16 -28 35 -56 19 -28 35 -55 35 -60 0 -5 5 -9
11 -9 11 0 6 102 -7 163 -3 12 -5 66 -4 120 1 53 -3 103 -7 110 -4 6 -9 21
-10 32 -1 11 -7 45 -12 75 -5 30 -9 96 -9 145 1 98 5 85 27 -76 5 -42 19 -94
30 -115 12 -21 21 -49 21 -61 0 -13 5 -23 10 -23 6 0 10 5 10 12 0 23 60 -56
70 -91 11 -41 8 -90 -6 -99 -5 -4 -9 -43 -9 -87 1 -106 24 -162 72 -171 18 -3
36 -10 39 -15 3 -5 14 -4 25 2 12 6 23 8 27 5 3 -3 -1 -6 -8 -6 -9 0 -7 -5 6
-15 14 -11 16 -17 7 -23 -12 -8 -12 -21 1 -59 8 -24 21 -30 31 -13 7 11 -10
101 -30 165 -28 87 -87 282 -95 315 -4 19 -15 60 -23 90 -37 133 -50 293 -43
514 8 244 11 292 30 461 15 126 27 275 31 385 8 189 14 260 24 279 15 27 41
146 47 214 3 34 9 64 14 67 7 5 18 62 24 130 2 19 10 51 19 70 9 21 12 41 7
50 -5 9 -2 25 8 43 14 24 15 29 2 37 -15 9 -16 106 0 125 4 6 11 26 15 45 4
19 14 45 22 58 11 17 12 31 5 51 -8 21 -5 36 14 71 13 25 24 55 24 67 0 12 5
25 10 28 6 3 7 17 4 30 -3 13 2 37 11 55 9 17 14 38 11 46 -3 8 6 39 19 69 14
29 25 60 25 67 0 14 29 75 53 112 34 54 140 154 168 160 26 5 30 10 27 33 -2
17 2 28 10 29 6 1 19 2 27 3 8 0 15 7 15 14 0 19 70 87 90 87 10 0 25 3 33 6
9 3 16 -3 20 -15 3 -12 10 -21 17 -21 6 0 8 5 4 12 -5 7 -3 8 6 3 7 -4 16 -2
20 5 10 16 137 63 169 62 13 0 32 9 41 21 9 11 25 21 36 22 31 2 114 29 114
37 0 4 21 6 48 5 33 -1 46 2 45 10 -2 7 9 16 25 19 15 4 32 10 37 14 11 9 73
19 158 25 33 3 63 7 67 10 5 3 11 1 15 -5 8 -13 45 -13 45 0 0 6 8 10 18 10 9
0 34 9 54 20 21 11 54 20 75 20 21 0 61 2 88 4 88 7 159 7 193 2 18 -3 44 -1
57 4 15 6 27 6 30 0 8 -13 58 -9 67 5 5 7 14 6 28 -2 27 -17 47 -16 54 2 3 10
19 15 44 15 21 0 42 4 48 9 5 5 25 12 45 16 26 5 39 2 48 -9 16 -19 32 -21 29
-3 -2 7 9 13 26 15 16 2 35 10 43 18 18 18 35 18 79 -1 20 -8 41 -12 48 -7 6
4 34 12 61 17 32 6 50 15 51 25 1 8 2 19 3 24 0 5 11 1 23 -10 12 -10 18 -13
14 -6 -4 7 -1 12 8 12 9 0 15 -6 14 -12 -2 -9 17 -14 62 -16 35 -2 67 -7 70
-13 4 -5 38 -10 76 -10 73 -1 134 -15 147 -33 6 -8 10 -7 14 2 5 13 83 17 83
4 0 -8 71 -32 98 -32 11 0 27 -9 37 -20 10 -11 22 -17 26 -14 5 3 9 0 9 -6 0
-6 11 -15 25 -20 22 -9 24 -12 13 -30 -7 -11 -21 -20 -30 -20 -10 0 -18 -4
-18 -9 0 -14 28 -21 59 -15 21 4 30 2 35 -11 3 -10 12 -15 21 -11 8 3 20 -1
27 -8 7 -7 19 -11 26 -8 6 2 12 -1 12 -6 0 -6 14 -13 31 -17 20 -5 29 -11 25
-21 -3 -8 -1 -14 4 -14 6 0 10 5 10 10 0 22 39 8 63 -24 19 -25 23 -36 14 -45
-8 -8 -8 -11 0 -11 18 0 25 -37 13 -60 -6 -11 -8 -20 -5 -20 9 0 49 24 58 35
6 6 10 6 14 -2 2 -7 12 -13 21 -13 14 0 14 -2 3 -9 -11 -7 -11 -9 0 -14 12 -4
12 -7 1 -15 -9 -6 -4 -9 18 -10 24 0 30 3 26 14 -4 11 0 10 19 -3 13 -10 25
-26 25 -36 0 -10 7 -20 15 -23 8 -4 15 -14 15 -23 0 -19 36 -45 50 -36 6 4 10
-7 10 -23 0 -20 6 -31 18 -34 9 -3 24 -18 32 -34 8 -16 21 -33 27 -37 7 -4 13
-13 13 -20 0 -7 11 -24 25 -39 21 -23 26 -41 31 -105 4 -43 12 -89 19 -103 16
-32 29 -98 26 -128 -2 -13 2 -28 7 -35 5 -7 15 -43 22 -82 15 -85 54 -213 85
-280 13 -27 27 -61 30 -74 4 -13 14 -40 23 -60 8 -20 14 -46 13 -59 -1 -13 2
-29 8 -36 6 -7 20 -41 31 -76 11 -35 24 -68 29 -74 5 -6 10 -29 12 -51 2 -22
6 -47 10 -55 13 -27 58 -301 69 -420 6 -63 20 -182 31 -265 11 -82 24 -199 29
-260 5 -60 12 -121 15 -134 13 -54 22 -282 14 -376 -9 -116 -27 -219 -71 -395
-36 -149 -58 -262 -58 -309 0 -33 1 -34 15 -15 13 16 16 17 25 4 13 -20 13 -4
-1 22 -8 14 -8 23 0 31 6 6 11 18 11 27 0 8 9 23 20 33 19 16 20 16 20 -1 0
-9 11 5 24 31 13 27 31 54 39 60 10 7 18 33 21 62 3 28 12 77 20 110 8 33 20
80 26 104 6 24 16 53 22 64 6 12 11 35 10 52 0 25 1 27 8 10 5 -11 9 -98 9
-193 1 -115 4 -171 11 -167 6 4 8 11 4 16 -3 5 2 24 11 42 9 17 27 61 40 97
12 36 37 101 54 145 30 76 32 89 37 250 5 144 4 177 -11 215 -9 25 -17 51 -17
58 -1 12 -17 16 -50 14 -15 -1 -18 6 -17 41 1 34 2 37 8 17 l7 -25 12 22 c7
12 12 38 12 58 0 29 4 35 18 33 15 -3 17 5 15 57 -1 33 -7 93 -14 133 -12 72
-7 185 9 206 5 6 8 46 7 89 -1 42 2 77 7 77 4 0 8 -4 8 -10 0 -5 5 -10 11 -10
6 0 8 9 4 21 -4 12 -2 24 4 28 16 10 23 111 9 128 -9 11 -9 16 0 22 18 11 18
111 1 122 -16 10 -13 80 4 91 9 6 9 8 0 8 -7 0 -18 19 -24 43 -6 23 -14 36
-16 29 -3 -6 -9 -10 -14 -6 -5 3 -5 12 1 23 11 21 1 63 -28 118 -29 54 -33 80
-13 89 9 4 21 6 28 5 26 -4 22 19 -7 34 -16 8 -30 20 -30 26 0 6 6 6 18 0 19
-10 62 -11 62 -1 0 3 -14 14 -30 25 -52 34 -107 135 -65 119 15 -6 21 7 8 20
-4 4 -8 21 -9 39 -1 18 -3 37 -5 42 -2 6 1 11 6 13 18 6 26 31 16 51 -8 14 -7
21 2 24 9 3 6 12 -8 33 -14 20 -22 48 -23 88 -3 68 -39 146 -77 166 -13 7 -21
18 -19 25 3 7 -4 20 -16 28 -11 8 -20 19 -18 25 2 5 -10 21 -25 36 -23 21 -26
29 -17 46 8 15 8 20 -3 20 -13 0 -27 21 -42 65 -5 13 -9 15 -12 8 -3 -7 -14
-13 -26 -13 -21 1 -21 1 -4 15 18 13 17 14 -7 30 -29 19 -45 63 -27 74 18 12
22 162 4 179 -9 10 -12 25 -8 46 5 23 4 27 -4 16 -14 -19 -12 -33 -17 180 -2
103 -8 188 -14 194 -6 6 -10 19 -10 31 0 27 -32 77 -82 131 -22 24 -57 75 -77
114 -20 39 -45 79 -54 90 -9 11 -17 27 -17 36 0 8 -4 12 -10 9 -5 -3 -26 11
-46 32 -79 84 -110 113 -124 119 -8 3 -37 31 -65 63 -27 31 -87 88 -133 126
-45 39 -97 82 -115 98 -17 15 -59 44 -92 64 -33 20 -100 63 -148 95 -48 32
-92 58 -97 58 -16 0 -178 97 -217 130 -16 13 -26 13 -18 0 16 -26 -80 15 -105
45 -7 9 -26 23 -42 31 -16 8 -52 33 -81 54 -29 22 -60 40 -69 40 -9 0 -20 5
-23 10 -11 17 -83 60 -102 60 -13 0 -11 -6 12 -30 31 -33 28 -50 -8 -32 -12 6
-31 13 -42 15 -11 2 -19 8 -18 15 2 6 -3 9 -10 6 -7 -2 -27 2 -43 11 -16 8
-36 15 -45 15 -9 0 -19 3 -22 6 -4 4 -48 8 -99 10 -123 5 -135 7 -150 22 -16
16 -833 18 -843 2 -5 -8 -11 -7 -21 1 -11 9 -14 8 -14 -5z"/>
<path d="M6044 13176 c-3 -8 -1 -23 5 -34 8 -15 7 -23 -4 -32 -15 -13 -19 -8
-16 23 1 9 -4 17 -13 17 -11 0 -16 -10 -16 -34 0 -18 -7 -39 -15 -46 -8 -7
-15 -22 -15 -34 0 -32 -17 -1 -25 46 -4 21 -11 38 -15 38 -5 0 -6 -16 -3 -35
6 -39 -11 -49 -23 -13 -7 22 -7 22 -30 -7 -29 -36 -32 -68 -6 -63 10 2 16 11
14 21 -2 10 4 17 13 17 11 0 14 -6 9 -25 -4 -18 -3 -25 6 -23 7 2 15 -3 17 -9
3 -8 -4 -13 -16 -13 -12 0 -21 -5 -21 -11 0 -6 7 -8 16 -5 15 6 15 4 3 -11 -7
-10 -14 -20 -16 -22 -1 -2 -9 4 -18 13 -9 9 -13 21 -9 27 4 7 0 17 -8 23 -8 6
-18 18 -21 26 -4 8 -5 4 -2 -10 14 -65 17 -148 6 -154 -6 -4 -14 0 -17 9 -6
14 -9 14 -26 -5 -10 -11 -18 -27 -16 -37 2 -9 -2 -18 -9 -20 -9 -3 -22 52 -27
119 -2 19 -14 15 -20 -7 -4 -14 -11 -25 -16 -25 -6 0 -10 -7 -10 -16 0 -14 3
-14 15 -4 12 10 15 10 16 -1 1 -8 2 -21 3 -29 2 -8 3 -25 4 -37 2 -18 8 -23
30 -23 15 0 37 -7 48 -15 12 -8 24 -11 28 -8 3 3 6 1 6 -5 0 -7 -4 -12 -9 -12
-5 0 -7 -9 -4 -20 4 -16 9 -18 24 -9 16 8 19 6 19 -11 0 -12 7 -20 16 -20 14
0 16 9 12 55 -6 68 7 64 15 -6 4 -30 13 -56 23 -63 14 -11 14 -13 0 -25 -20
-17 -21 -31 -1 -31 8 0 15 -9 15 -20 0 -25 8 -25 33 -2 11 9 17 11 13 5 -10
-17 11 -53 31 -53 15 0 15 -2 0 -18 -10 -10 -17 -24 -17 -31 0 -7 -6 -11 -13
-8 -9 3 -11 -14 -9 -73 4 -70 2 -78 -16 -82 -14 -4 -21 -18 -26 -52 -4 -26
-14 -50 -22 -53 -8 -3 -14 -12 -14 -20 0 -8 5 -11 10 -8 6 3 10 -1 10 -10 0
-10 -6 -15 -13 -12 -8 3 -14 -4 -15 -19 -1 -14 3 -23 10 -21 7 1 14 -8 16 -21
2 -13 10 -26 18 -29 8 -3 14 -18 14 -34 0 -38 -24 -38 -44 -1 -18 32 -17 34
-22 -51 -2 -53 0 -69 11 -74 8 -3 15 -10 15 -17 0 -6 9 -17 19 -23 10 -7 31
-37 45 -67 15 -31 30 -56 35 -56 5 0 11 -9 14 -20 3 -11 12 -20 21 -20 9 0 16
-4 16 -10 0 -5 9 -10 20 -10 11 0 29 -8 40 -17 11 -10 30 -27 42 -38 13 -11
31 -18 40 -17 10 2 18 -3 18 -11 0 -8 8 -17 18 -21 9 -3 22 -8 29 -12 6 -3 14
7 18 24 5 24 10 29 26 25 11 -3 18 -8 15 -11 -3 -2 6 -14 20 -24 17 -14 33
-18 50 -14 13 4 33 2 44 -4 15 -8 22 -6 34 12 9 12 16 17 16 10 0 -6 11 -12
24 -12 19 0 23 -4 19 -20 -5 -19 -3 -19 23 -10 30 12 96 -6 74 -20 -15 -9 54
-19 103 -14 20 2 37 -1 37 -6 0 -5 7 -7 15 -4 8 4 12 10 9 16 -7 10 33 58 48
58 5 0 16 7 24 15 11 11 12 15 3 15 -7 0 -10 2 -7 6 9 8 96 16 173 15 64 -1
68 0 50 13 -11 8 -28 23 -38 33 -10 10 -21 18 -25 19 -4 0 -18 5 -32 11 -14 6
-33 14 -42 17 -26 8 -22 26 5 27 21 0 21 1 -3 10 -14 6 -42 9 -62 7 -24 -2
-38 1 -38 8 0 6 -10 15 -22 18 -23 6 -23 6 -3 21 11 8 25 18 30 22 13 10 33
10 64 -1 19 -6 28 -4 37 9 11 15 16 16 29 5 13 -11 20 -11 40 0 14 7 28 11 31
7 3 -3 17 -1 31 4 20 7 30 6 44 -7 10 -9 25 -14 34 -10 9 3 34 -3 56 -14 34
-18 39 -18 39 -5 0 11 6 15 18 12 72 -20 74 -19 108 19 19 20 31 41 27 47 -3
6 -2 7 3 4 6 -3 16 -2 24 4 13 7 12 9 -1 9 -9 0 -19 6 -22 14 -3 8 -19 17 -36
21 -17 4 -33 11 -36 16 -4 5 -19 9 -36 9 -19 0 -29 5 -29 15 0 9 6 15 13 14
23 -3 37 1 37 11 0 30 -169 158 -275 208 -102 48 -244 92 -299 92 -27 0 -31 6
-18 28 5 7 21 10 43 7 96 -13 201 -17 195 -7 -4 6 -13 9 -20 6 -7 -3 -16 1
-19 9 -3 8 -18 18 -34 22 -15 3 -36 15 -46 26 -10 10 -24 19 -31 19 -8 0 -16
11 -19 26 -4 21 -1 25 17 22 11 -2 21 -8 21 -15 0 -6 3 -15 8 -19 4 -4 7 7 7
24 0 16 6 33 13 36 10 5 10 7 0 12 -7 3 -13 10 -13 15 0 12 36 12 59 0 15 -8
20 -4 31 25 15 37 24 42 37 19 5 -8 24 -18 42 -21 23 -5 32 -4 28 3 -14 22 25
38 84 35 80 -5 98 9 30 23 -30 5 -56 16 -59 23 -3 9 3 13 14 12 40 -5 64 1 61
13 -1 9 21 12 85 13 76 2 91 -1 118 -21 29 -21 30 -24 13 -34 -14 -8 -7 -10
35 -11 40 0 58 -5 75 -21 l22 -22 -23 6 c-20 5 -21 3 -10 -10 11 -14 10 -15
-10 -9 -38 12 -25 -10 26 -43 29 -19 40 -31 29 -31 -10 0 -15 -4 -12 -10 3 -5
22 -10 41 -10 30 0 34 -3 34 -25 0 -17 -6 -25 -17 -25 -13 0 -14 -3 -5 -12 7
-7 12 -22 12 -35 0 -13 4 -23 9 -23 24 0 29 94 6 124 -11 14 -12 23 -4 32 6 7
9 21 8 31 -1 10 3 31 9 46 14 34 16 70 3 62 -5 -3 -12 -1 -16 5 -3 5 -1 10 4
10 6 0 11 9 11 20 0 36 -24 72 -62 91 -21 11 -38 26 -38 34 0 8 -5 15 -10 15
-6 0 -42 32 -81 70 -44 44 -78 70 -92 70 -12 0 -29 5 -37 10 -12 8 -10 10 10
10 l25 1 -25 14 c-14 7 -59 25 -100 39 -68 24 -80 25 -129 15 -48 -10 -56 -9
-67 5 -9 13 -28 17 -76 18 -42 0 -73 6 -93 18 -29 18 -94 24 -200 19 -60 -3
-159 17 -151 30 3 4 -11 5 -30 3 -27 -3 -34 -1 -34 13 0 12 -5 15 -17 10 -10
-4 -43 -9 -73 -12 -30 -4 -61 -12 -68 -20 -16 -16 -32 -17 -32 -2 0 7 -10 9
-25 7 -17 -4 -25 -1 -25 8 0 20 -21 17 -47 -8 -12 -12 -31 -22 -41 -23 -9 0
-23 -4 -30 -9 -6 -4 -12 -4 -13 1 0 4 -7 -8 -15 -27 l-14 -35 6 40 c8 55 25
72 60 56 31 -14 30 -14 39 20 9 35 -16 44 -46 18 -28 -24 -35 -24 -42 1 -6 23
-25 27 -33 6z m868 -930 c116 -38 226 -94 271 -137 27 -26 57 -49 64 -49 8 0
32 -32 33 -44 0 -12 -56 1 -105 23 -22 11 -57 24 -78 31 -21 7 -41 19 -44 27
-3 8 -12 12 -20 9 -8 -3 -33 5 -56 18 -23 13 -57 27 -74 31 -18 4 -33 11 -33
16 0 5 -11 9 -24 9 -44 0 -56 9 -46 36 5 13 7 24 3 24 -6 0 28 29 34 30 1 0
35 -11 75 -24z"/>
<path d="M4350 13101 c0 -5 11 -12 25 -15 38 -10 31 -29 -7 -20 -75 16 -169
12 -237 -12 -36 -13 -66 -29 -66 -36 0 -7 6 -12 14 -10 61 13 75 14 66 3 -6
-6 -38 -16 -70 -22 -33 -6 -64 -15 -70 -20 -5 -5 -23 -8 -40 -8 l-30 1 30 8
30 7 -28 11 c-20 9 -41 9 -78 1 -38 -8 -53 -8 -65 2 -12 10 -19 8 -37 -9 -12
-11 -35 -24 -52 -28 -28 -7 -29 -6 -16 10 12 14 12 19 2 26 -11 6 -11 9 0 13
9 3 10 6 2 6 -6 1 -15 -3 -18 -9 -3 -5 -16 -10 -28 -10 -27 -1 -55 -21 -50
-36 2 -6 -8 -16 -22 -24 -14 -7 -25 -19 -25 -25 0 -10 -88 -55 -108 -55 -4 0
-18 -7 -31 -16 -17 -12 -20 -19 -11 -24 9 -6 6 -10 -9 -15 -13 -4 -24 -18 -27
-34 -3 -15 -15 -31 -27 -36 -17 -8 -22 -19 -23 -50 0 -22 -6 -50 -12 -62 -7
-13 -9 -23 -5 -23 4 0 -3 -9 -17 -20 -22 -16 -23 -20 -8 -25 15 -6 15 -9 4
-21 -11 -10 -12 -22 -4 -53 6 -23 7 -53 2 -68 -4 -16 -8 -33 -9 -40 0 -6 -4
-15 -8 -19 -4 -4 -2 -13 4 -20 8 -10 18 -8 47 9 27 16 32 23 19 25 -21 4 -22
18 -1 26 11 4 15 14 11 33 -11 56 38 102 108 103 28 1 59 6 70 11 19 9 19 9
-2 5 -15 -2 -23 2 -26 15 -3 12 0 19 10 19 8 0 12 4 9 9 -10 16 16 18 67 4 64
-16 74 -27 21 -20 l-42 5 21 -24 c15 -18 31 -24 61 -25 23 0 50 -4 61 -9 16
-7 14 -9 -15 -9 -26 -1 -31 -4 -20 -11 13 -9 13 -10 0 -10 -8 0 -4 -6 10 -13
14 -7 24 -21 24 -30 -2 -20 32 -24 39 -4 3 6 6 2 6 -10 1 -27 12 -28 73 -7 60
20 114 16 112 -9 -2 -15 4 -17 35 -11 20 4 41 13 46 19 6 7 18 15 28 18 15 6
16 3 7 -12 -7 -14 -6 -20 6 -25 8 -3 13 -2 9 3 -8 15 17 18 47 7 38 -14 35
-23 -12 -31 -22 -4 -42 -11 -46 -16 -3 -5 -13 -9 -23 -9 -10 0 -24 -7 -31 -15
-7 -8 -20 -15 -29 -15 -9 0 -29 -9 -46 -21 -28 -19 -28 -20 -5 -13 14 4 32 7
40 7 8 0 17 4 20 8 3 4 21 11 40 14 19 3 44 8 55 11 15 4 16 3 6 -4 -9 -7 3
-9 40 -9 33 1 54 -4 57 -11 5 -17 22 -15 22 3 0 19 3 19 45 -4 41 -22 36 -31
-17 -31 -107 0 -278 -59 -418 -143 -62 -38 -170 -132 -170 -149 0 -20 30 -3
86 50 69 65 181 128 294 165 89 29 180 42 180 27 0 -5 -5 -10 -11 -10 -5 0 -8
-4 -4 -9 3 -5 1 -13 -5 -16 -8 -5 -7 -11 1 -21 9 -11 7 -14 -10 -14 -11 0 -21
-4 -21 -9 0 -4 -12 -6 -26 -3 -14 2 -29 0 -33 -5 -9 -14 -112 -63 -132 -63 -9
0 -22 -6 -28 -14 -24 -28 -257 -133 -283 -128 -4 1 -12 -7 -17 -17 -6 -10 -27
-22 -48 -26 -47 -9 -55 -13 -46 -28 10 -17 11 -47 1 -53 -14 -9 -9 -34 7 -34
9 0 18 -7 21 -15 4 -8 10 -12 15 -9 5 3 7 10 4 15 -7 10 8 12 18 2 4 -4 -5
-20 -20 -36 l-28 -29 40 8 c22 4 46 7 53 7 6 0 12 4 12 9 0 4 19 8 43 8 35 0
49 6 71 29 19 20 34 27 51 23 14 -2 25 -8 25 -13 0 -13 54 1 63 17 4 8 17 14
29 14 20 0 20 0 -1 -17 l-22 -18 30 -1 c16 -1 37 -8 46 -18 19 -18 41 -21 50
-6 4 6 12 4 21 -5 11 -11 12 -19 5 -32 -10 -17 -10 -17 -11 2 -1 11 -4 14 -7
7 -3 -7 0 -19 6 -26 9 -10 8 -15 -4 -20 -16 -6 -55 13 -55 26 0 14 -21 8 -47
-11 -13 -11 -30 -18 -37 -15 -8 3 -16 -2 -19 -10 -4 -9 -1 -14 6 -11 40 12 67
14 67 5 0 -5 -6 -10 -14 -10 -10 0 -12 -7 -9 -21 5 -20 3 -21 -23 -16 -27 5
-27 4 -9 -9 10 -8 25 -14 32 -14 7 0 13 -4 13 -10 0 -5 -6 -10 -14 -10 -8 0
-18 5 -21 10 -9 15 -25 12 -25 -5 0 -8 5 -15 11 -15 6 0 8 -7 5 -16 -5 -14 -1
-16 34 -10 30 5 52 1 85 -14 24 -11 63 -20 85 -20 33 0 43 -4 47 -20 3 -13 20
-24 47 -32 22 -6 46 -15 51 -19 16 -11 65 -8 65 5 0 8 -19 12 -51 13 -46 1
-68 12 -69 34 0 4 19 9 41 13 30 5 48 2 65 -9 27 -18 34 -19 34 -5 0 6 -7 10
-15 10 -8 0 -15 5 -15 10 0 17 46 11 64 -9 23 -26 66 -36 78 -19 8 10 9 10 5
-2 -5 -21 41 -44 59 -29 8 6 14 18 14 25 0 14 11 18 43 15 9 -1 17 4 17 13 0
9 -7 16 -15 16 -24 0 -17 17 9 22 32 6 48 -3 36 -22 -14 -21 -12 -30 5 -30 7
0 18 -7 22 -15 7 -13 13 -13 36 -3 15 7 27 16 27 20 0 8 -20 22 -35 24 -5 0
-16 2 -22 2 -20 3 -15 16 9 27 27 12 40 52 14 42 -9 -4 -16 -2 -16 4 0 7 10 8
28 3 53 -15 90 -13 108 7 9 10 21 19 26 19 12 0 29 19 50 55 9 17 26 31 38 33
12 2 24 11 27 20 3 9 15 26 27 37 27 26 46 60 46 83 0 10 9 28 20 40 23 24 26
52 8 70 -9 9 -8 12 4 12 23 0 30 14 22 45 -4 16 -12 24 -19 21 -32 -12 -92
108 -62 126 18 11 15 128 -4 142 -9 6 -19 23 -22 37 -4 14 -23 37 -44 52 -21
15 -32 27 -24 27 10 0 11 3 2 14 -6 7 -10 27 -9 43 2 24 6 29 21 25 10 -3 23
1 28 9 8 12 10 12 18 0 14 -21 54 -4 48 21 -4 14 0 22 14 25 14 4 17 8 9 13
-7 4 2 13 24 24 36 17 43 30 27 54 -5 8 -18 11 -37 7 -26 -5 -26 -4 -6 4 22
10 27 33 22 104 -1 21 3 27 19 27 12 0 21 5 21 10 0 6 -8 10 -19 10 -26 0 -44
23 -29 38 9 9 7 17 -10 32 -25 23 -33 25 -26 6 4 -10 -2 -12 -21 -9 -34 7 -40
20 -24 49 11 22 10 26 -9 40 -12 8 -22 21 -22 28 0 8 -7 19 -15 26 -13 11 -15
8 -15 -14 0 -14 -4 -26 -9 -26 -5 0 -18 -3 -28 -6 -15 -5 -15 -4 -3 5 12 8 5
11 -30 11 -29 0 -40 -3 -31 -9 7 -5 12 -14 9 -21 -2 -7 -16 1 -36 21 -25 26
-32 41 -30 64 3 27 0 30 -41 38 -38 8 -47 6 -58 -9 -12 -16 -15 -15 -53 10
-22 14 -40 23 -40 20 0 -9 53 -54 64 -54 5 0 7 -3 4 -6 -3 -3 -14 -1 -25 5
-27 15 -57 24 -67 22 -13 -3 -69 21 -81 35 -12 14 -125 28 -125 15z"/>
<path d="M4616 11257 c-13 -9 -16 -18 -10 -28 15 -24 13 -39 -6 -39 -10 0 -23
-7 -30 -15 -7 -9 -29 -15 -51 -15 -28 0 -39 -4 -39 -15 0 -8 -5 -15 -11 -15
-8 0 -8 -4 -1 -12 14 -17 18 -50 9 -65 -6 -9 -2 -13 11 -13 11 0 27 -11 36
-25 14 -22 14 -25 2 -25 -9 0 -31 -9 -49 -19 -19 -11 -45 -21 -57 -23 -13 -1
-26 -9 -28 -17 -4 -11 1 -12 19 -7 50 16 69 18 69 9 0 -14 -66 -32 -92 -26
-21 5 -21 4 5 -16 15 -12 27 -31 27 -41 0 -10 5 -22 10 -25 6 -3 10 -12 10
-18 0 -8 -3 -8 -9 1 -5 9 -17 11 -35 6 -23 -5 -27 -11 -22 -30 5 -20 2 -24
-14 -24 -12 0 -18 -5 -15 -10 4 -6 13 -9 20 -8 8 2 13 -1 12 -6 -1 -6 -13 -11
-26 -12 -34 -4 -37 -12 -7 -20 22 -5 24 -9 15 -21 -10 -11 -9 -18 4 -31 16
-15 15 -18 -5 -39 -17 -18 -19 -25 -9 -37 10 -12 9 -17 -8 -28 -25 -15 -27
-28 -6 -28 8 0 15 -4 15 -10 0 -5 -8 -10 -17 -10 -10 0 -24 -4 -32 -9 -12 -8
-12 -12 -2 -24 9 -11 9 -17 1 -22 -8 -5 -6 -13 6 -26 17 -18 16 -19 -25 -19
-26 0 -40 -4 -36 -10 4 -6 11 -7 17 -4 11 7 58 -15 58 -28 0 -5 -12 -13 -26
-18 -19 -7 -24 -15 -20 -27 4 -9 1 -20 -6 -24 -7 -5 -13 -13 -13 -19 0 -5 -4
-10 -10 -11 -5 0 -14 -4 -20 -8 -5 -5 -22 -11 -37 -15 -31 -7 -37 -30 -12 -40
8 -3 14 -14 12 -23 -2 -10 3 -23 12 -30 13 -10 13 -14 -5 -27 -16 -12 -17 -17
-7 -24 11 -7 8 -16 -15 -38 l-28 -29 45 -3 c24 -2 48 -9 52 -15 6 -9 8 -9 8 0
0 6 16 17 35 23 24 8 35 18 35 31 0 12 7 19 20 19 11 0 20 -4 20 -10 0 -5 5
-10 11 -10 6 0 9 6 6 14 -6 15 35 66 53 66 5 0 10 7 10 15 0 8 16 27 35 42 19
15 35 34 35 41 0 6 5 12 10 12 17 0 47 35 54 64 3 14 11 26 16 26 6 0 17 18
26 40 9 22 22 40 30 40 7 0 16 11 20 25 3 14 10 25 14 25 18 0 79 -31 84 -42
5 -10 7 -10 12 0 9 19 24 14 24 -8 0 -11 7 -20 15 -20 8 0 15 -6 15 -13 0 -14
52 -57 70 -57 5 0 10 5 10 10 0 6 -6 10 -14 10 -19 0 -40 26 -26 35 5 3 10 2
10 -4 0 -5 10 -13 23 -17 12 -3 29 -12 37 -19 19 -15 140 -18 140 -3 0 6 13 9
34 5 39 -6 56 6 56 41 0 23 21 52 38 52 11 0 32 -41 30 -60 -4 -44 3 -60 25
-60 l22 -1 -20 -17 c-24 -20 -42 -57 -22 -46 6 4 20 14 30 22 9 8 20 12 24 8
5 -4 0 -12 -10 -17 -9 -6 -14 -15 -11 -21 4 -7 2 -8 -5 -4 -21 13 -70 -17 -77
-46 -7 -35 -17 -35 -38 -3 -20 30 -40 33 -31 5 4 -13 1 -22 -9 -26 -9 -3 -16
-12 -16 -20 0 -8 -4 -14 -10 -14 -5 0 -10 5 -10 10 0 18 -20 11 -45 -16 -14
-15 -25 -22 -25 -15 0 6 -4 11 -10 11 -5 0 -7 -7 -4 -15 4 -11 2 -13 -9 -10
-8 4 -17 -1 -21 -10 -3 -9 -2 -13 4 -10 6 3 10 2 10 -4 0 -18 -17 -21 -30 -6
-7 8 -21 15 -31 15 -24 0 -69 -21 -69 -32 0 -5 9 -4 20 2 29 15 25 -1 -10 -40
-16 -18 -30 -37 -30 -41 0 -15 -48 -60 -54 -50 -10 15 4 39 25 44 16 4 29 47
14 47 -16 0 -55 -26 -55 -37 0 -7 -4 -13 -10 -13 -5 0 -10 5 -10 12 0 9 -3 9
-11 1 -14 -14 -2 -36 13 -27 8 5 9 -1 5 -17 -4 -14 0 -30 9 -40 16 -18 11 -59
-7 -59 -5 0 -8 3 -8 8 5 31 -3 48 -26 50 -13 1 -27 -3 -30 -8 -3 -6 5 -10 20
-10 17 0 24 -4 19 -11 -3 -6 -19 -9 -35 -5 -20 4 -31 1 -38 -11 -5 -9 -18 -17
-30 -18 -16 -1 -18 1 -10 12 6 7 8 13 5 13 -16 0 -53 -24 -72 -47 -13 -15 -27
-22 -34 -18 -7 4 3 17 30 37 22 17 47 43 55 59 8 15 27 40 40 54 14 14 22 25
16 25 -5 0 -35 -29 -66 -65 -32 -36 -63 -65 -69 -65 -7 0 -29 -9 -50 -20 -22
-10 -44 -16 -50 -12 -6 4 -13 7 -16 8 -3 0 -13 4 -23 8 -10 5 -23 3 -31 -3
-11 -9 -15 -8 -20 5 -5 13 -9 14 -21 4 -8 -7 -15 -18 -15 -24 0 -6 7 -2 15 8
8 11 16 16 16 10 8 -64 8 -68 -2 -54 -15 23 -59 -32 -59 -74 0 -17 -5 -37 -12
-44 -9 -9 -9 -12 1 -12 7 0 9 -4 6 -10 -3 -5 -11 -10 -17 -10 -7 0 -8 16 -4
48 4 26 7 55 7 65 0 9 4 17 10 17 5 0 9 9 9 20 0 14 -5 18 -17 13 -15 -6 -16
-4 -5 9 13 17 6 52 -9 42 -5 -3 -9 -16 -9 -29 0 -13 -6 -30 -13 -37 -17 -17
-38 -88 -26 -88 5 0 9 -10 9 -22 0 -13 7 -36 15 -51 8 -16 14 -47 13 -69 -1
-38 15 -63 34 -52 11 7 10 34 -2 34 -5 0 -10 7 -10 15 0 8 5 15 10 15 6 0 10
6 10 14 0 8 6 16 14 19 8 3 12 15 9 31 -4 18 0 28 11 32 9 3 16 11 16 16 0 6
-6 8 -14 5 -9 -4 -13 2 -13 19 0 20 2 22 13 13 11 -9 14 -8 14 5 0 9 5 16 11
16 5 0 7 -6 3 -12 -11 -17 -13 -109 -3 -103 4 3 9 -7 11 -22 l4 -28 9 30 c8
31 21 45 43 45 18 0 15 -18 -8 -37 -11 -10 -20 -23 -20 -30 0 -7 -5 -13 -11
-13 -8 0 -7 -5 1 -15 8 -9 21 -13 34 -10 19 5 19 5 4 -5 -22 -14 -23 -36 -2
-44 13 -5 15 -15 11 -41 -4 -26 -3 -33 6 -28 20 13 77 9 77 -4 0 -7 11 -13 25
-13 15 0 25 -6 25 -15 0 -12 6 -12 44 -1 39 12 49 11 83 -4 21 -9 52 -29 68
-44 51 -45 56 -48 69 -43 8 3 23 -1 34 -9 22 -15 36 -5 37 26 0 10 11 15 35
15 19 0 41 4 48 8 6 5 16 6 21 2 5 -3 13 -1 16 5 5 8 11 7 21 -1 11 -9 15 -8
19 4 9 21 82 31 100 13 10 -9 28 -13 52 -10 50 6 69 -6 52 -34 -20 -32 10 -70
58 -74 36 -3 38 -5 41 -42 4 -41 1 -42 -53 -20 -17 7 -18 6 -7 -8 10 -13 9
-17 -10 -22 -19 -5 -20 -8 -8 -16 9 -6 10 -10 3 -10 -7 0 -16 7 -21 16 -5 9
-15 15 -21 13 -9 -3 -6 -13 8 -31 16 -19 18 -28 9 -32 -7 -3 0 -4 16 -1 22 5
27 3 23 -8 -4 -10 4 -17 25 -21 17 -3 36 -13 42 -21 8 -11 34 -16 93 -18 46
-2 84 -5 87 -8 2 -2 6 -15 8 -27 2 -20 -4 -26 -35 -37 -21 -7 -40 -15 -41 -17
-1 -1 -12 -19 -23 -40 -21 -35 -21 -36 -2 -41 10 -3 19 -12 19 -21 0 -9 5 -16
11 -16 5 0 7 -5 4 -10 -10 -15 25 -24 38 -10 9 10 9 14 -1 17 -10 4 -10 8 -1
19 20 25 29 15 29 -31 l0 -44 -32 6 c-22 4 -29 3 -24 -5 4 -7 18 -12 32 -12
14 0 24 -6 24 -14 0 -7 9 -16 20 -19 15 -4 18 -12 15 -37 -2 -17 -9 -37 -15
-45 -8 -10 -8 -15 1 -21 7 -4 15 -2 17 4 8 24 29 12 24 -13 -4 -24 11 -35 22
-16 3 5 22 9 42 9 21 0 32 -3 25 -7 -7 -5 2 -12 24 -18 30 -10 35 -9 35 5 0
10 4 23 9 31 8 12 12 12 26 -3 11 -11 25 -14 39 -10 24 7 56 38 56 54 0 5 5
10 11 10 6 0 9 -7 5 -15 -10 -28 21 -15 48 19 31 41 32 46 7 46 -10 0 -24 7
-31 15 -9 10 -9 15 -1 15 6 0 11 -4 11 -10 0 -14 11 -12 33 4 16 12 16 17 6
35 -18 27 -8 34 26 17 33 -17 69 -2 61 27 -3 12 2 17 19 17 13 0 27 -4 30 -10
3 -5 14 -10 23 -9 13 0 12 3 -4 11 -23 11 -49 54 -45 76 1 6 -7 12 -18 12 -11
0 -22 4 -25 9 -6 9 -64 0 -85 -13 -6 -4 -11 -2 -11 3 0 6 5 11 10 11 16 0 12
17 -6 24 -9 4 -23 1 -31 -5 -10 -9 -17 -9 -25 -1 -7 7 -20 12 -30 12 -10 0
-21 6 -24 14 -7 19 -85 31 -96 14 -5 -9 -8 -7 -8 8 0 29 22 48 38 32 9 -9 16
-8 29 4 12 10 49 18 103 22 80 6 87 9 112 39 19 21 37 32 55 32 14 0 28 7 31
15 5 13 3 13 -12 1 -12 -10 -20 -11 -28 -3 -7 7 -17 7 -34 0 -13 -6 -27 -8
-32 -3 -4 4 -1 10 7 13 8 3 24 15 35 27 12 12 29 24 39 28 20 7 33 34 22 45
-3 4 -12 -1 -19 -11 -7 -9 -18 -17 -23 -17 -6 0 -16 -7 -23 -16 -20 -23 -50
-37 -50 -23 0 6 9 13 20 16 28 7 25 23 -4 23 -30 0 -40 25 -21 54 11 16 23 22
47 20 18 -1 39 2 45 8 7 6 20 8 28 4 8 -3 15 -1 15 5 0 5 8 9 17 7 10 -2 25
10 37 29 12 18 28 31 36 30 8 -1 14 4 12 12 -2 9 2 11 15 6 10 -4 31 -10 46
-13 24 -4 28 -1 25 14 -2 14 2 18 19 16 14 -2 23 3 26 15 4 17 5 17 6 -1 1
-14 6 -17 25 -12 18 4 28 1 35 -11 7 -12 10 -13 11 -4 0 8 6 11 15 7 8 -3 22
-9 30 -12 11 -5 13 -2 9 10 -8 20 9 21 26 1 27 -33 83 -15 140 45 19 21 44 42
56 48 28 15 59 8 58 -12 -1 -9 3 -16 10 -15 24 3 36 -1 34 -12 -2 -6 3 -14 11
-17 10 -3 13 1 8 17 -3 11 -1 19 4 15 5 -3 9 2 9 11 0 9 5 13 10 10 6 -3 10
-15 10 -26 0 -10 7 -19 15 -19 8 0 15 9 15 19 0 28 20 37 27 12 6 -22 18 -27
28 -12 3 5 1 12 -4 16 -11 6 -9 80 2 91 4 4 7 19 7 34 0 33 9 43 27 29 21 -18
14 -92 -23 -211 -4 -12 0 -18 10 -18 9 0 16 8 16 20 0 11 12 26 29 34 16 9 34
29 40 46 6 18 14 29 19 26 4 -2 6 11 4 30 -3 20 0 34 6 34 6 0 14 17 17 38 4
20 9 44 12 52 4 8 7 17 7 20 1 3 4 10 8 16 8 12 -26 190 -40 207 -5 7 -8 23
-7 37 1 16 -10 39 -31 64 -21 24 -35 51 -35 70 -1 17 -2 42 -3 56 -1 14 4 28
9 32 6 4 2 8 -7 8 -10 0 -18 5 -18 10 0 6 4 10 9 10 5 0 16 13 24 29 12 25 12
29 -2 39 -14 9 -13 11 8 11 17 1 22 5 17 17 -3 9 -6 25 -6 36 0 11 -8 22 -20
25 -11 3 -20 9 -20 14 0 5 -4 9 -10 9 -5 0 -7 -6 -4 -14 7 -18 -45 -9 -65 12
-12 12 -12 15 0 23 11 7 9 13 -11 28 -14 11 -21 23 -16 28 5 4 11 2 13 -5 3
-6 9 -10 13 -7 5 3 7 12 4 20 -4 8 3 15 18 18 13 3 9 5 -12 4 -34 -2 -35 -1
-35 33 0 23 5 34 13 32 18 -3 15 4 -13 34 -14 15 -25 33 -25 41 0 10 -9 13
-27 11 -30 -3 -78 32 -55 40 22 7 12 29 -30 70 -23 21 -23 30 -1 28 14 -1 18
8 19 47 1 26 -2 47 -7 47 -5 0 -9 7 -9 15 0 20 -22 65 -32 65 -4 0 -8 -11 -8
-25 0 -14 -4 -25 -8 -25 -5 0 -7 14 -4 30 5 32 -13 41 -36 18 -9 -9 -12 -9
-12 0 0 6 12 15 28 18 21 5 74 44 60 44 -2 0 -18 -4 -36 -10 -27 -7 -41 -5
-70 10 -46 25 -52 25 -52 0 0 -11 -7 -20 -15 -20 -7 0 -18 -6 -22 -13 -10 -16
-51 -28 -58 -17 -3 4 -26 5 -51 2 -34 -3 -45 -2 -40 7 4 6 1 11 -8 11 -24 0
-30 -21 -7 -27 29 -7 26 -23 -4 -23 -18 0 -25 5 -25 20 0 11 -4 20 -10 20 -5
0 -10 -4 -10 -10 0 -5 -6 -10 -14 -10 -7 0 -19 -7 -26 -15 -10 -12 -16 -13
-26 -4 -23 19 -16 -4 23 -82 37 -72 38 -78 38 -179 0 -96 -2 -108 -24 -137
-14 -18 -30 -33 -36 -33 -10 0 -53 38 -97 87 -10 11 -18 27 -18 36 0 10 -8 17
-20 17 -11 0 -23 7 -26 15 -4 8 -10 13 -14 10 -4 -3 -24 2 -44 10 -48 20 -75
19 -94 -5 -12 -15 -30 -21 -59 -23 -23 0 -38 -4 -32 -8 6 -3 -3 -12 -20 -19
-17 -7 -31 -16 -31 -21 0 -5 -7 -9 -16 -9 -8 0 -13 -4 -10 -9 3 -5 -3 -11 -13
-14 -14 -3 -17 0 -14 14 4 16 -1 19 -28 20 -31 1 -32 2 -9 8 15 4 25 14 25 25
0 10 8 24 18 31 23 17 6 29 -29 21 -13 -4 -34 -1 -47 5 -12 7 -35 14 -52 15
-16 2 -45 6 -62 10 -22 4 -33 2 -33 -5 0 -6 -5 -11 -12 -11 -6 0 -3 10 8 22
10 12 14 18 7 15 -6 -4 -14 -3 -17 2 -7 11 -56 11 -56 0 0 -5 6 -9 14 -9 8 0
16 -7 20 -15 4 -11 -1 -15 -18 -15 -27 0 -53 -25 -36 -35 16 -10 1 -27 -19
-20 -14 4 -17 -2 -16 -35 0 -27 4 -40 14 -40 7 0 11 -6 8 -15 -4 -8 -2 -17 3
-20 4 -3 11 1 13 7 3 7 6 3 6 -9 1 -12 6 -25 11 -28 6 -3 10 -18 10 -32 0 -15
7 -34 15 -43 14 -15 14 -21 0 -54 -12 -27 -23 -38 -45 -43 -16 -3 -27 -9 -25
-14 9 -14 -35 -31 -66 -24 -16 4 -27 10 -24 15 3 4 13 6 23 4 9 -2 23 0 31 5
12 8 13 12 1 25 -16 21 -6 33 14 17 20 -17 56 -4 56 19 0 14 -5 17 -22 12 -14
-3 -19 -2 -14 6 4 7 2 12 -3 12 -6 0 -11 9 -11 20 0 11 -9 25 -20 32 -11 7
-20 20 -20 29 0 12 8 14 33 11 26 -4 30 -2 20 9 -7 7 -13 21 -13 30 0 19 -72
91 -120 120 -17 11 -48 22 -70 25 -22 4 -37 10 -35 14 3 4 -6 11 -20 14 -17 4
-31 0 -45 -14 -23 -23 -36 -25 -43 -7 -4 8 -6 8 -6 1 -1 -7 -27 -38 -58 -69
-35 -35 -53 -60 -45 -62 20 -7 14 -38 -13 -67 -14 -15 -25 -31 -25 -36 0 -19
-41 5 -64 38 -36 54 -49 116 -42 198 7 73 2 104 -16 104 -6 0 -16 7 -22 15 -6
9 -21 17 -34 18 -16 1 -20 6 -17 18 3 10 -1 19 -10 23 -8 3 -15 14 -15 25 0
11 -4 23 -10 26 -17 10 -11 25 9 25 11 0 22 -6 24 -12 3 -8 6 -6 6 5 1 10 -5
20 -13 23 -10 4 -14 16 -10 40 2 23 0 34 -9 34 -8 0 -13 13 -12 33 0 25 4 32
21 33 37 2 43 11 31 44 -7 18 -19 30 -29 30 -10 0 -18 7 -18 15 0 16 12 20 24
8 12 -12 48 -14 44 -2 -2 7 -19 13 -36 14 -41 3 -55 15 -19 15 15 0 27 5 27
10 0 6 -18 10 -39 10 -28 0 -41 5 -43 16 -3 13 -6 13 -22 1z m1784 -720 c0
-17 74 -89 83 -81 4 4 7 0 7 -10 0 -9 11 -21 25 -26 17 -6 23 -14 19 -25 -4
-9 4 -25 20 -40 15 -14 24 -30 21 -35 -10 -16 14 -40 40 -40 22 0 40 -23 36
-47 -1 -6 15 -17 34 -23 28 -9 34 -16 30 -30 -4 -14 0 -20 17 -23 20 -4 19 -4
-5 -6 -21 -1 -28 -5 -25 -18 3 -13 12 -17 35 -16 24 2 40 -5 68 -32 35 -33 41
-60 10 -48 -8 3 -15 0 -15 -6 0 -6 5 -11 10 -11 6 0 19 -9 29 -19 16 -16 17
-22 7 -31 -16 -12 -42 -4 -50 16 -4 11 -2 12 14 4 29 -15 38 -11 10 5 -36 21
-42 19 -38 -17 3 -27 8 -33 38 -41 19 -5 39 -12 44 -17 5 -5 -1 -6 -14 -3 -19
5 -22 3 -17 -10 4 -10 2 -17 -4 -17 -6 0 0 -15 12 -32 l22 -33 -32 30 c-17 16
-27 31 -21 33 5 2 7 8 4 14 -4 6 0 14 7 19 10 6 6 9 -14 9 -19 0 -31 7 -39 25
-6 14 -15 25 -20 25 -4 0 -8 7 -8 15 0 8 -6 15 -14 15 -7 0 -21 11 -30 25 -23
34 -32 31 -32 -10 0 -19 4 -35 8 -35 4 0 8 -4 8 -10 0 -21 -24 -8 -64 36 -27
30 -51 47 -69 49 -15 2 -35 9 -43 16 -8 6 -17 9 -20 6 -4 -3 -13 1 -21 9 -9 8
-25 14 -37 12 -11 -1 -27 1 -34 6 -18 11 -29 -1 -14 -16 7 -7 8 -17 1 -29 -5
-10 -8 -22 -7 -28 2 -5 1 -10 -2 -11 -16 -5 -94 42 -85 51 2 3 -12 22 -30 44
-29 33 -36 37 -45 25 -8 -13 -13 -9 -12 10 0 3 -11 13 -24 23 -14 10 -24 13
-24 7 0 -6 -14 -2 -31 10 -16 12 -33 19 -37 15 -4 -4 3 -14 16 -22 12 -9 22
-20 22 -25 0 -14 -49 25 -50 40 0 6 -4 12 -10 12 -5 0 -10 8 -10 18 0 18 -18
42 -32 42 -4 0 -4 -8 -1 -17 5 -12 2 -15 -10 -10 -12 4 -17 1 -18 -11 -1 -16
-2 -16 -6 1 -5 19 -33 24 -33 6 0 -6 -6 -9 -13 -6 -8 3 -14 -3 -14 -15 -2 -16
1 -17 13 -8 9 8 14 9 14 2 0 -6 -4 -13 -9 -16 -14 -9 -42 5 -35 16 4 6 -1 8
-13 4 -15 -5 -19 -1 -21 19 -1 17 3 25 14 25 11 0 13 6 9 20 -4 12 -2 27 5 35
7 9 8 15 0 20 -5 3 -10 1 -10 -4 0 -6 -4 -11 -10 -11 -5 0 -10 6 -10 14 0 8
-11 24 -25 37 -13 13 -25 29 -25 34 0 7 3 7 8 0 4 -5 18 -16 32 -24 20 -10 22
-11 13 0 -17 17 -16 29 2 29 21 0 19 18 -2 23 -10 3 4 5 30 6 53 1 70 -17 47
-52 -10 -17 -10 -22 4 -32 9 -7 16 -19 16 -27 0 -12 26 -17 50 -8 3 1 20 1 38
0 36 -2 105 39 123 73 6 10 17 16 25 13 24 -9 45 5 39 25 -5 13 -1 19 10 19
10 0 26 11 37 25 11 14 23 23 28 20 4 -3 11 6 14 20 5 20 13 25 36 25 18 0 30
-5 30 -13z m-1035 -637 c-8 -13 1 -13 26 0 15 8 19 7 19 -5 0 -8 5 -15 11 -15
6 0 9 7 5 15 -3 8 -1 15 4 15 6 0 10 -4 10 -9 0 -4 12 -6 26 -3 25 4 26 3 19
-27 l-7 -31 64 -2 c35 -1 79 -1 98 -1 44 0 152 22 165 33 14 12 94 10 101 -2
3 -5 19 -6 34 -3 17 4 31 2 35 -5 5 -8 12 -6 25 5 14 12 23 14 37 6 11 -5 25
-6 33 -1 9 6 18 3 27 -8 11 -16 12 -16 13 2 0 17 2 17 24 2 16 -10 26 -12 28
-4 3 7 10 4 21 -6 11 -11 24 -15 37 -11 11 4 20 2 20 -4 0 -6 7 -11 15 -11 8
0 15 4 15 9 0 12 43 1 52 -13 5 -8 8 -7 8 2 0 6 5 12 10 12 6 0 10 -7 10 -15
0 -8 7 -15 15 -15 8 0 15 -4 15 -9 0 -5 7 -12 16 -15 8 -3 13 -2 10 3 -3 4 1
17 9 27 14 18 14 18 15 -3 0 -32 16 -29 25 4 6 24 8 26 16 10 6 -10 14 -15 19
-12 5 3 12 -7 16 -22 12 -56 14 -60 26 -40 5 10 8 27 5 38 -5 18 -4 18 19 1
13 -9 26 -26 30 -37 3 -11 20 -32 37 -47 31 -26 31 -27 13 -47 -23 -25 -81
-28 -110 -6 -11 8 -32 15 -46 15 -14 0 -31 5 -37 11 -13 13 -75 16 -125 5 -32
-7 -36 -6 -35 11 2 12 -6 19 -23 21 -14 2 -29 8 -34 13 -6 5 -15 4 -23 -3 -10
-8 -19 -6 -37 11 -13 12 -34 23 -47 25 -78 10 -125 20 -130 28 -10 15 -90 17
-95 3 -5 -13 -58 -25 -127 -30 -21 -2 -44 -8 -52 -15 -8 -7 -24 -9 -36 -5 -18
6 -21 4 -16 -9 4 -10 1 -16 -8 -16 -8 0 -15 4 -15 9 0 7 -61 18 -150 27 -14 1
-44 5 -68 9 -29 5 -51 4 -67 -5 -14 -8 -42 -11 -70 -8 -25 3 -48 2 -51 -3 -3
-5 -18 -9 -35 -9 -16 0 -37 -4 -47 -9 -32 -16 -92 -32 -100 -27 -5 3 -15 -6
-23 -20 -17 -33 -42 -46 -70 -36 -13 5 -36 4 -58 -4 -20 -7 -46 -13 -58 -14
-13 0 -23 -6 -23 -14 0 -7 -12 -16 -27 -20 -16 -3 -59 -15 -98 -26 -83 -23
-115 -25 -115 -6 0 19 -97 31 -116 15 -12 -10 -13 -9 -8 4 3 8 13 19 22 22 15
6 14 8 -5 16 -23 8 -32 29 -13 29 6 0 10 -5 10 -11 0 -5 4 -8 10 -4 5 3 7 12
3 20 -3 9 1 15 11 15 9 0 16 5 16 10 0 6 5 10 11 10 5 0 8 -4 5 -9 -4 -5 3 -7
14 -4 11 3 18 9 15 13 -3 5 8 13 24 18 24 9 31 8 36 -6 5 -14 9 -13 27 11 22
30 41 36 31 10 -4 -11 -3 -14 6 -9 6 4 9 16 6 26 -3 10 -1 21 5 25 6 4 9 13 7
20 -4 8 5 12 24 13 27 1 40 -12 20 -20 -4 -1 -11 -13 -15 -25 -6 -20 -4 -21
27 -16 30 4 35 2 41 -18 l6 -24 25 28 c14 16 23 33 20 38 -3 5 1 6 9 3 9 -3
17 -16 17 -28 2 -20 2 -20 6 2 3 15 12 22 26 22 12 0 33 12 46 25 29 31 45 32
36 3 -6 -18 -4 -20 11 -14 11 5 46 10 79 13 46 4 65 11 81 29 17 19 28 22 68
19 31 -2 44 0 35 6 -11 7 -10 9 4 9 10 0 17 8 17 20 0 12 8 21 23 24 12 3 31
7 42 9 11 3 21 5 23 6 2 0 0 -3 -3 -9z"/>
<path d="M3313 10165 c-1 -19 3 -38 8 -41 13 -8 11 -44 -3 -44 -9 0 -9 -3 0
-12 7 -7 12 -22 12 -35 0 -13 4 -23 9 -23 4 0 6 -11 3 -25 -2 -14 1 -32 8 -40
7 -8 9 -26 5 -45 -4 -19 -1 -41 9 -61 9 -17 13 -35 11 -40 -3 -4 4 -25 15 -47
11 -21 32 -94 45 -163 14 -68 30 -132 36 -142 6 -11 6 -24 0 -36 -6 -10 -7
-21 -3 -25 3 -4 7 -22 8 -40 0 -18 10 -53 21 -77 11 -24 28 -61 37 -81 9 -20
21 -40 26 -43 5 -3 17 -30 26 -60 10 -30 21 -55 26 -55 4 0 8 -9 8 -19 0 -11
8 -27 17 -37 9 -9 18 -25 20 -36 2 -10 19 -32 38 -49 19 -17 35 -38 35 -46 0
-9 8 -23 18 -32 9 -9 26 -32 36 -51 24 -42 25 -43 73 -97 20 -24 43 -43 50
-43 7 0 13 -9 13 -20 0 -11 5 -20 10 -20 6 0 10 -7 10 -15 0 -8 6 -15 13 -15
8 0 19 -11 25 -25 15 -32 15 -48 2 -40 -6 3 -7 -1 -4 -9 3 -9 12 -16 19 -16 7
0 16 -11 19 -25 4 -14 11 -25 16 -25 5 0 7 8 3 18 -4 13 -1 12 18 -6 20 -19
22 -24 9 -32 -13 -8 -12 -10 3 -10 9 0 17 -6 17 -13 0 -17 48 -67 64 -67 8 0
19 -7 26 -15 11 -13 10 -14 -4 -9 -23 9 -20 -6 8 -39 l24 -27 6 25 c8 32 19
32 40 0 22 -34 21 -52 -3 -31 -17 15 -19 15 -25 1 -8 -23 -8 -27 4 -20 6 3 10
2 10 -3 0 -5 11 -14 25 -20 31 -14 46 -15 25 -2 -13 8 -12 10 3 10 9 0 17 -5
17 -10 0 -9 19 -33 78 -98 12 -14 22 -33 22 -42 0 -10 7 -23 16 -31 19 -16 54
-83 54 -104 0 -9 9 -15 22 -15 17 0 19 3 10 12 -17 17 -15 28 4 21 10 -4 14
-13 10 -29 -5 -17 -1 -24 14 -29 30 -9 60 -59 60 -98 0 -19 7 -40 14 -47 8 -6
22 -34 31 -61 16 -46 35 -66 35 -35 0 11 8 12 33 6 46 -11 67 -21 67 -31 0 -5
15 -8 33 -7 47 1 57 -1 57 -12 0 -5 10 -20 22 -32 20 -20 21 -23 6 -26 -31 -6
17 -47 50 -44 39 4 81 -41 64 -68 -11 -18 -10 -19 14 -8 20 10 30 9 54 -5 15
-9 36 -17 46 -17 22 0 8 -16 -21 -23 -11 -3 19 -3 67 -1 48 2 98 8 111 13 14
5 28 7 31 4 7 -8 -14 -34 -23 -29 -3 2 -6 -7 -6 -20 0 -20 5 -24 32 -24 19 0
32 -5 30 -11 -1 -6 4 -14 11 -16 7 -3 12 5 12 21 0 20 5 26 21 26 11 0 18 -4
15 -9 -3 -4 6 -6 20 -3 19 3 22 7 12 13 -18 12 -10 11 42 -5 28 -9 36 -15 23
-15 -28 -1 -31 -31 -3 -31 14 0 18 -5 13 -16 -4 -12 -1 -15 13 -12 11 2 18 11
16 19 -1 12 7 16 30 17 29 1 31 -1 16 -12 -24 -17 -23 -23 5 -22 17 1 22 -5
22 -23 0 -14 7 -27 14 -29 11 -4 13 7 9 54 -3 33 -3 51 -1 42 5 -20 24 -27 89
-32 27 -2 61 -9 76 -15 22 -8 29 -7 35 4 5 8 24 15 43 17 49 3 68 31 29 43
-31 10 -22 51 11 47 55 -7 153 -2 165 8 9 8 14 8 17 0 3 -11 65 15 79 33 3 4
14 5 25 1 15 -5 16 -4 4 5 -19 13 -10 21 35 27 43 5 106 35 87 41 -6 3 -9 9
-6 14 3 6 14 1 24 -11 10 -12 21 -17 24 -11 3 5 0 12 -6 15 -9 3 -5 12 12 26
l24 22 10 -22 c8 -17 6 -30 -7 -54 l-17 -31 30 35 c16 19 30 42 30 51 0 19 45
59 66 59 7 0 18 8 24 18 8 12 13 13 16 5 4 -9 12 -9 30 3 13 9 24 20 24 25 0
15 -22 10 -36 -8 -13 -17 -13 -17 -14 -1 0 10 14 24 30 33 17 9 30 24 30 35 0
22 48 63 67 56 7 -3 15 -1 18 4 4 6 -1 10 -9 10 -14 0 -14 3 -4 20 17 26 28
25 28 -1 0 -21 1 -21 20 4 11 14 23 39 26 56 4 17 11 31 16 31 6 0 7 7 4 16
-5 14 -4 15 8 5 15 -13 26 4 26 41 0 16 3 18 13 10 19 -16 47 16 47 53 0 8 9
23 20 32 24 21 25 30 3 51 -16 16 -15 17 10 20 31 4 33 8 12 28 -20 21 -19 35
4 41 22 6 33 37 19 51 -7 7 -4 19 11 38 28 35 27 39 -11 41 -29 2 -30 1 -12
-12 16 -13 17 -16 4 -25 -8 -5 -23 -10 -32 -10 -17 0 -18 -4 -19 -75 l0 -30
-16 38 c-14 35 -42 55 -29 21 4 -11 -1 -22 -13 -30 -15 -11 -18 -22 -13 -61 5
-44 4 -47 -11 -34 -18 15 -23 66 -7 76 5 3 9 17 8 29 -3 28 -28 23 -28 -5 0
-27 -18 -24 -23 4 -2 12 -5 1 -6 -25 -1 -56 -17 -63 -27 -13 -5 27 -9 33 -19
25 -14 -12 -25 -3 -25 20 0 19 -37 56 -46 47 -4 -4 -1 -13 5 -21 10 -12 8 -15
-11 -18 -13 -2 -22 -9 -20 -16 6 -31 11 -82 7 -82 -2 0 -14 18 -26 40 -23 40
-58 67 -44 33 19 -46 17 -49 -19 -48 -20 1 -36 -3 -36 -8 0 -5 9 -7 20 -4 30
8 46 -18 25 -40 -17 -16 -17 -16 -11 4 6 17 3 20 -19 18 -14 -2 -27 1 -31 6
-3 5 -14 9 -24 9 -10 0 -22 9 -25 20 -3 11 -13 20 -21 20 -8 0 -14 5 -14 10 0
6 -5 10 -12 10 -7 0 -6 -6 4 -17 26 -31 31 -43 14 -37 -9 3 -16 10 -16 14 0 4
-12 5 -26 2 -14 -2 -22 -7 -17 -11 6 -3 12 -17 16 -31 6 -24 5 -24 -19 5 -18
21 -27 26 -31 17 -4 -10 -12 -7 -30 10 l-25 23 7 -49 c5 -33 4 -47 -3 -42 -6
3 -12 1 -14 -6 -4 -11 -26 3 -75 49 l-23 22 0 -28 c0 -23 -6 -30 -25 -35 -14
-4 -23 -11 -20 -16 3 -6 2 -10 -3 -10 -6 0 -12 7 -16 15 -3 8 -12 12 -20 9 -8
-3 -17 -1 -21 5 -3 6 -11 11 -18 11 -8 0 -8 -3 1 -12 17 -17 15 -27 -5 -23
-10 2 -22 4 -26 4 -5 1 -6 4 -3 9 9 15 -23 45 -44 39 -13 -3 -24 1 -30 14 -6
10 -17 19 -24 19 -8 0 -19 7 -26 15 -7 9 -20 13 -29 10 -10 -3 -22 6 -33 24
-12 21 -22 28 -36 24 -17 -4 -19 -1 -14 24 5 25 3 26 -11 15 -9 -8 -17 -23
-19 -34 -4 -28 -28 -36 -28 -9 0 27 -13 33 -54 26 -25 -5 -33 -11 -29 -24 3
-11 -5 -21 -22 -29 -17 -8 -25 -18 -21 -27 3 -8 1 -15 -5 -15 -15 0 -36 -24
-41 -46 -2 -10 -8 -19 -15 -19 -6 0 -15 -3 -19 -7 -4 -5 -16 -8 -26 -8 -10 0
-18 -4 -18 -10 0 -15 -32 -12 -54 5 -26 20 -43 19 -73 -5 -15 -11 -29 -18 -32
-14 -3 3 2 11 12 18 20 16 22 26 4 26 -16 0 -51 -37 -60 -62 -4 -10 -11 -18
-17 -18 -7 0 -7 7 1 21 10 20 9 21 -14 15 -29 -7 -47 11 -26 26 10 7 2 8 -24
4 -37 -5 -77 14 -77 37 0 21 36 42 72 41 21 -1 38 2 38 7 0 14 -74 10 -96 -5
-11 -8 -37 -17 -57 -21 -28 -6 -42 -15 -54 -39 -10 -17 -16 -34 -15 -38 1 -4
-5 -5 -14 -1 -11 4 -12 9 -5 16 6 6 11 15 11 20 0 5 -7 2 -15 -7 -8 -8 -15
-19 -15 -25 0 -5 -6 -14 -13 -18 -15 -9 -39 -61 -33 -71 2 -4 -2 -13 -10 -20
-12 -11 -14 -9 -14 12 0 14 -5 28 -10 31 -6 3 -7 17 -4 31 4 14 2 24 -5 24 -6
0 -11 -4 -11 -8 0 -5 -7 -17 -15 -28 -14 -18 -14 -18 -15 9 0 19 4 26 12 21 7
-5 9 -2 5 8 -3 9 0 21 6 28 7 7 0 5 -15 -6 -15 -10 -28 -23 -28 -27 0 -5 -4
-6 -10 -2 -5 3 -1 14 10 25 11 11 20 31 20 45 0 15 6 25 14 25 8 0 17 4 21 10
3 5 -10 8 -32 6 -26 -3 -39 -9 -44 -24 -10 -27 -29 -37 -40 -21 -5 8 -9 10
-10 4 -1 -5 -2 -14 -3 -20 0 -5 -6 -19 -13 -30 -15 -26 -28 -13 -13 14 14 27
-1 27 -25 1 -10 -11 -22 -20 -27 -20 -5 0 5 15 21 33 17 17 31 38 31 45 0 6 7
12 15 12 8 0 15 5 15 10 0 17 -14 11 -54 -22 -30 -25 -40 -28 -47 -17 -6 11
-11 11 -21 1 -20 -20 -27 -14 -25 18 2 26 6 30 31 30 22 0 27 4 22 16 -3 9 -6
18 -6 20 0 2 -7 4 -15 4 -8 0 -15 5 -15 10 0 6 11 10 25 10 14 0 25 5 25 10 0
6 -7 10 -15 10 -8 0 -15 5 -15 10 0 6 -5 10 -11 10 -5 0 -7 -4 -4 -10 3 -5 1
-10 -4 -10 -6 0 -11 -6 -11 -13 0 -21 -35 -48 -53 -42 -8 4 -18 1 -23 -6 -4
-7 -2 -15 4 -17 7 -2 10 -8 6 -13 -7 -12 -24 -11 -24 2 0 14 -53 79 -65 79
-16 1 -47 49 -39 62 5 8 2 9 -9 5 -19 -7 -24 17 -6 28 6 4 8 13 5 20 -6 17 45
65 69 65 13 0 16 3 8 11 -7 7 -21 4 -46 -11 -27 -16 -40 -32 -47 -62 -9 -33
-14 -37 -26 -28 -8 7 -14 17 -14 22 0 6 -13 23 -30 38 -16 15 -30 26 -30 23 0
-14 -263 262 -294 309 -48 71 -104 140 -127 156 -11 7 -26 28 -35 45 -23 44
-68 94 -81 90 -6 -2 -14 1 -18 6 -3 7 0 8 9 5 21 -8 20 2 -3 34 -10 15 -26 44
-36 65 -9 20 -24 37 -32 37 -12 0 -13 3 -5 13 8 10 6 22 -8 45 -11 18 -20 40
-20 48 0 9 -8 33 -19 53 -36 71 -122 388 -161 591 -19 102 -62 294 -76 343 -9
29 -20 19 -21 -18z"/>
<path d="M7340 8824 c-8 -16 -20 -32 -27 -37 -7 -4 -10 -14 -6 -22 6 -18 -22
-65 -40 -65 -7 0 -21 -17 -31 -37 -10 -21 -22 -45 -27 -53 -5 -8 -12 -23 -15
-32 -4 -10 -14 -18 -23 -18 -17 0 -66 -94 -56 -109 2 -5 -1 -14 -9 -20 -11 -9
-15 -7 -19 11 -9 35 -18 15 -19 -41 0 -28 -4 -54 -9 -57 -5 -3 -9 4 -9 15 0
11 -5 23 -10 26 -6 3 -7 18 -3 33 6 24 5 25 -9 11 -14 -14 -24 -66 -18 -94 1
-5 2 -17 1 -27 -1 -9 3 -19 9 -23 6 -4 10 4 10 19 0 14 4 26 9 26 12 0 22 -44
11 -48 -6 -2 -10 -8 -10 -13 0 -4 7 -6 15 -3 8 4 15 17 15 30 0 38 59 128 137
211 26 27 73 112 73 131 0 7 11 29 24 50 29 43 59 126 54 149 -2 11 -7 7 -18
-13z"/>
<path d="M3795 7353 c-71 -10 -178 -49 -280 -102 -60 -32 -128 -64 -150 -71
-183 -58 -296 -123 -465 -265 -25 -21 -59 -44 -77 -51 -17 -8 -33 -17 -35 -21
-10 -24 -136 -118 -200 -150 -40 -20 -88 -47 -107 -61 -18 -14 -83 -47 -144
-74 -61 -27 -116 -53 -122 -58 -13 -11 -211 -110 -219 -110 -4 0 -45 -18 -92
-40 -47 -22 -91 -40 -97 -40 -7 0 -23 -6 -37 -13 -41 -21 -117 -46 -462 -154
-26 -8 -99 -27 -161 -43 -63 -15 -130 -35 -148 -44 -19 -8 -68 -27 -109 -42
-41 -14 -79 -30 -85 -34 -5 -4 -43 -22 -82 -38 -40 -17 -104 -49 -142 -71 -38
-23 -99 -57 -137 -76 -37 -19 -72 -39 -78 -44 -6 -5 -25 -12 -43 -16 -18 -3
-49 -18 -69 -31 -20 -14 -53 -32 -73 -40 -24 -10 -61 -45 -108 -102 l-72 -87
-1 -2737 0 -2738 5875 0 5876 0 24 28 c13 15 25 32 25 38 0 11 96 120 162 183
l38 36 0 1829 c0 1341 -3 1839 -11 1865 -7 20 -15 45 -20 56 -4 11 -24 64 -44
119 -20 54 -51 131 -70 170 -35 73 -49 98 -188 341 -138 241 -138 241 -221
365 -38 58 -214 250 -341 374 -16 16 -76 73 -131 127 -56 55 -119 106 -140
115 -21 9 -57 33 -80 53 -50 44 -88 63 -169 86 -33 10 -71 23 -85 31 -15 7
-75 29 -135 49 -61 20 -132 47 -160 60 -27 12 -66 26 -85 30 -37 8 -76 24
-150 60 -25 12 -83 34 -130 48 -47 14 -118 36 -159 48 -40 12 -101 40 -135 61
-97 61 -218 116 -349 160 -58 19 -80 33 -140 93 -73 71 -159 125 -241 149 -25
8 -67 29 -93 48 -57 41 -70 47 -143 59 -124 20 -234 75 -295 146 -64 74 -165
137 -433 271 -207 104 -317 152 -350 152 -23 0 39 -67 120 -131 51 -41 95 -87
130 -138 l53 -76 -1 -100 c0 -86 -5 -113 -33 -195 -52 -148 -105 -247 -199
-373 -48 -64 -90 -117 -94 -117 -3 0 -31 -24 -60 -52 -58 -57 -119 -107 -210
-176 -32 -24 -58 -48 -58 -53 0 -5 -8 -9 -18 -9 -11 0 -26 -8 -36 -18 -9 -11
-34 -28 -56 -38 -22 -10 -40 -22 -40 -26 0 -4 -7 -5 -15 -2 -9 4 -15 0 -15 -8
0 -15 -39 -38 -64 -38 -8 0 -16 -7 -20 -15 -3 -8 -16 -15 -28 -15 -36 0 -68
-11 -62 -21 3 -5 -5 -9 -16 -9 -12 0 -33 -9 -47 -20 -14 -11 -31 -20 -38 -20
-7 0 -18 -7 -25 -15 -8 -9 -21 -13 -34 -10 -16 5 -17 4 -7 -3 11 -8 4 -13 -27
-23 -26 -7 -42 -18 -42 -28 0 -13 -2 -14 -9 -2 -9 15 -41 9 -41 -8 0 -5 8 -12
18 -14 13 -4 12 -5 -5 -6 -12 0 -23 -5 -25 -11 -4 -13 -116 -52 -129 -45 -5 4
-9 -1 -9 -9 0 -11 -13 -18 -40 -22 -22 -4 -40 -10 -40 -15 0 -5 -7 -9 -15 -9
-7 0 -18 -7 -23 -16 -5 -10 -23 -15 -50 -16 -30 0 -42 -5 -42 -15 0 -10 -6
-12 -22 -7 -13 3 -20 3 -15 -2 17 -18 -186 -64 -373 -84 -58 -6 -112 -13 -121
-16 -9 -2 -24 3 -33 11 -9 9 -20 14 -26 10 -5 -3 -18 -1 -28 4 -11 6 -22 7
-26 4 -3 -3 -18 -8 -33 -9 -14 -2 -30 -9 -34 -16 -7 -10 -9 -10 -9 0 0 8 -16
12 -45 12 -25 0 -45 -5 -45 -11 0 -29 -530 25 -685 71 -16 5 -50 14 -75 21
-25 7 -49 16 -54 20 -5 4 -14 5 -21 3 -7 -3 -16 -1 -20 5 -3 6 -19 11 -34 11
-15 0 -31 3 -35 8 -4 4 -11 7 -14 8 -28 3 -112 44 -112 54 0 5 -7 6 -17 3 -11
-4 -14 -3 -9 5 10 17 -39 45 -66 37 -19 -5 -20 -4 -8 5 11 9 12 13 2 17 -6 2
-9 9 -6 15 4 6 -1 8 -14 4 -15 -5 -22 -2 -27 14 -3 11 -10 20 -15 20 -5 0 -20
10 -33 23 -44 42 -89 77 -98 77 -5 0 -12 18 -15 40 -4 25 -12 40 -21 40 -8 0
-11 -4 -8 -10 3 -5 1 -10 -4 -10 -6 0 -11 5 -11 12 0 18 -50 78 -65 78 -8 0
-12 6 -10 13 6 16 -24 51 -60 68 -16 8 -34 24 -41 36 -6 13 -14 20 -17 17 -7
-8 -55 39 -80 79 -21 33 -59 76 -109 126 -20 20 -46 52 -57 71 -11 19 -34 60
-52 90 -17 30 -40 72 -50 92 -10 20 -23 40 -29 43 -5 3 -10 14 -10 24 0 10 -8
29 -18 42 -35 47 -62 153 -61 236 1 99 12 140 52 206 71 118 146 179 362 297
94 52 165 99 165 110 0 10 -10 10 -65 3z"/>
</g>
</svg>
